<?xml version="1.0" encoding="utf-8"?>
<!-- Generator: Adobe Illustrator 12.0.0, SVG Export Plug-In  -->
<!DOCTYPE svg PUBLIC "-//W3C//DTD SVG 1.1//EN" "http://www.w3.org/Graphics/SVG/1.1/DTD/svg11.dtd" [
	<!ENTITY ns_flows "http://ns.adobe.com/Flows/1.0/">
	<!ENTITY ns_svg "http://www.w3.org/2000/svg">
	<!ENTITY ns_xlink "http://www.w3.org/1999/xlink">
]>
<svg  version="1.1" xmlns="&ns_svg;" xmlns:xlink="&ns_xlink;" xmlns:a="http://ns.adobe.com/AdobeSVGViewerExtensions/3.0/"
	 width="58" height="58" viewBox="-0.671 -0.679 58 58" enable-background="new -0.671 -0.679 58 58" xml:space="preserve">
<defs>
</defs>
<path fill="#3F3F3F" d="M23.419,11.75C30.021,1.738,35.903,2.898,36.99,7.837c1.085,4.932-1.525,11.463-2.762,14.001
	c-1.378,2.832-7.321,12.056-10.81,10.524c-1.813-0.799-2.249-5.15-0.939-10.887c0.576-2.611,2.828-7.038,3.694-8.13
	c2.035-2.177,6.318-3.191,6.318,2.106c-0.077,6.244-4.864,11.184-6.241,10.814c-0.722-0.217-1.236-1.816-0.656-4.498
	c1.091-4.575,3.194-3.626,3.194-3.626s-0.802,0.863-1.303,1.959c-0.362,0.938-0.725,2.974,0.074,3.267
	c0.427,0.142,1.442-0.874,2.175-2.109c0.363-0.657,0.721-1.597,0.867-2.178c0.294-1.735-0.504-6.238-3.917-2.827
	c-2.687,2.752-3.919,10.887-1.959,12.481c1.599,1.232,5.154-2.321,7.688-7.039c1.387-2.69,2.328-6.604,2.031-9.653
	c-0.576-6.316-7.18-3.847-9.867,0.726c-0.939,1.669-2.757,4.718-3.699,8.348c-1.81,6.821-1.591,14.296,1.088,15.237
	c4.357,1.527,11.979-9.435,14.295-14.223c2.688-5.584,4.21-11.899,3.626-16.768c-0.721-6.019-8.992-10.009-18.36,5.227
	c-0.502,0.623-0.502,1.02-0.502,1.02l1.889,1.015C22.915,12.625,22.932,12.498,23.419,11.75z"/>
<path fill="#3F3F3F" d="M37.597,42.667l0.943-0.357c0,0,0.869,3.485,1.737,4.569c1.309,1.595,4.218,2.909,5.954,2.034
	c2.615-1.455,2.319-5.302,2.319-5.302s0.871,1.31,1.452,4.5c0.801,4.286-0.939,6.022-2.471,6.756
	c-2.175,1.015-5.583,0.065-5.583,0.065l0.218-0.722l-1.093-0.36l-1.226,2.753l1.303,0.505l0.294-0.862c0,0,3.118,1.298,5.508,0.646
	c2.614-0.723,5.008-1.597,5.16-6.451c0.068-4.864-3.05-9.224-3.05-9.224h0.873l-0.152-1.159h-3.912v1.015l1.016,0.077
	c0,0,0.505,5.366-2.107,5.946c-3.194,0.797-4.932-5.225-4.932-5.225s1.226-0.436,1.52-0.581c0.293-0.073-0.436-0.939-0.436-0.939
	l-3.694,1.303L37.597,42.667z"/>
<path fill="#3F3F3F" d="M13.066,44.339c-2.246-3.63-11.829-3.63-11.829-3.63l-0.223-1.011L0,39.981l0.297,2.47l0.94-0.076
	l-0.076-0.576h1.308L3.125,53.26l-1.596,0.221l-0.152-1.084h-1.08l0.359,3.771l1.374-0.221l-0.282-1.234
	c0,0,2.681,0.219,7.542-1.735C13.795,51.161,15.096,47.61,13.066,44.339z M11.905,47.751c-0.505,3.626-7.329,5.08-7.329,5.08
	L3.63,42.168C3.63,42.168,12.558,43.25,11.905,47.751z"/>
<polygon fill="#3F3F3F" points="14.153,43.542 17.345,43.108 18.725,51.02 19.455,50.942 19.673,52.68 15.173,53.336 14.878,51.523 
	15.826,51.447 15.466,44.046 14.298,44.192 "/>
<path fill="#3F3F3F" d="M15.313,39.622c0.294,0.798,0.076,1.668-0.646,2.177c-0.655,0.511-2.762-0.146-2.689-1.379
	c0.069-1.16,0.287-1.377,1.017-1.595C13.649,38.603,15.096,38.825,15.313,39.622z"/>
<polygon fill="#3F3F3F" points="19.092,41.798 18.505,44.122 19.959,44.339 20.036,43.904 26.2,45.64 22.57,53.771 29.609,53.85 
	29.685,54.497 30.921,54.21 30.994,51.881 29.982,51.881 29.906,52.179 25.983,52.103 30.266,44.703 19.959,42.667 20.111,42.168 
	"/>
<polygon fill="#3F3F3F" points="26.353,40.932 26.78,43.465 28.234,43.392 28.09,42.667 33.531,41.653 31.422,52.538 38.757,53.413 
	38.681,54.21 39.991,53.917 39.991,51.599 38.899,51.523 38.757,52.322 33.237,51.085 36.94,39.552 27.726,41.29 27.578,40.856 "/>
<path fill="#3F3F3F" d="M13.986,56.553l0.798-2.1c0,0,0.167-0.37,0.484-0.27c0.313,0.093,0.256,0.396,0.256,0.396l-0.799,2.107
	c0,0-0.135,0.421-0.471,0.329C13.874,56.916,13.986,56.553,13.986,56.553z"/>
<path fill="#3F3F3F" d="M16.674,56.849L16.38,54.74c0,0-0.059-0.352,0.294-0.41c0.38-0.068,0.427,0.25,0.427,0.25l0.295,2.107
	c0,0-0.015,0.406-0.269,0.438C16.717,57.176,16.674,56.849,16.674,56.849z"/>
<path fill="#3F3F3F" d="M20.586,56.825l-1.736-1.958c0,0-0.159-0.235,0.068-0.436c0.294-0.271,0.562,0.029,0.562,0.029l1.741,1.961
	c0,0,0.181,0.219-0.024,0.47C20.967,57.208,20.586,56.825,20.586,56.825z"/>
<path fill="#3F3F3F" d="M52.86,45.247l2.908,0.068c0,0,0.334-0.058,0.334-0.319c0-0.27-0.363-0.395-0.363-0.395l-2.904-0.065
	c0,0-0.327,0.006-0.334,0.334C52.483,45.199,52.86,45.247,52.86,45.247z"/>
<path fill="#3F3F3F" d="M53.021,47.316l2.973,2.313c0,0,0.337,0.196,0.496-0.09c0.16-0.287-0.118-0.511-0.118-0.511l-2.981-2.319
	c0,0-0.279-0.169-0.453,0.073C52.7,47.088,53.021,47.316,53.021,47.316z"/>
<path fill="#3F3F3F" d="M52.139,42.642l3.333-2.096c0,0,0.217-0.223,0.51,0.092c0.289,0.317-0.189,0.595-0.189,0.595l-3.346,2.099
	c0,0-0.207,0.076-0.385-0.148C51.859,42.915,52.139,42.642,52.139,42.642z"/>
</svg>
