<?xml version="1.0" encoding="utf-8"?>
<!-- Generator: Adobe Illustrator 12.0.0, SVG Export Plug-In  -->
<!DOCTYPE svg PUBLIC "-//W3C//DTD SVG 1.1//EN" "http://www.w3.org/Graphics/SVG/1.1/DTD/svg11.dtd" [
	<!ENTITY ns_flows "http://ns.adobe.com/Flows/1.0/">
	<!ENTITY ns_svg "http://www.w3.org/2000/svg">
	<!ENTITY ns_xlink "http://www.w3.org/1999/xlink">
]>
<svg  version="1.1" xmlns="&ns_svg;" xmlns:xlink="&ns_xlink;" xmlns:a="http://ns.adobe.com/AdobeSVGViewerExtensions/3.0/"
	 width="96" height="23" viewBox="-0.439 -0.938 96 23" enable-background="new -0.439 -0.938 96 23" xml:space="preserve">
<defs>
</defs>
<path fill="#3F3F3F" d="M40.79,8.412l0.001-0.002l-0.611,2.165L40.79,8.412L40.79,8.412z"/>
<path fill="#3F3F3F" d="M43.93,13.11l-0.673-0.004L43.93,13.11z"/>
<path fill="#3F3F3F" d="M43.758,16.342L43.758,16.342l-4.032,0.016L43.758,16.342L43.758,16.342z"/>
<path fill="#3F3F3F" d="M44.604,13.114l-0.675-0.004L44.604,13.114z"/>
<path fill="#3F3F3F" d="M44.111,16.067l0.703-2.679L44.111,16.067L44.111,16.067L44.111,16.067z"/>
<path fill="#3F3F3F" d="M58.955,3.733l-1.309,6.149L58.955,3.733z"/>
<path fill="#3F3F3F" d="M55.592,3.733l-0.993,4.595L55.592,3.733L55.592,3.733z"/>
<path fill="#3F3F3F" d="M58.731,3.456h-2.797c-0.156,0-0.311,0.124-0.343,0.277l-0.993,4.595l-0.993,4.594
	c-0.033,0.152-0.188,0.276-0.342,0.276h-1.698h-0.282c-1.959,0-1.732-1.356-1.332-3.212c0.005-0.019,0.009-0.037,0.013-0.056
	l0.044-0.234c0.003-0.015,0.006-0.029,0.009-0.043l0.089-0.478l0.096-0.51c0.029-0.154,0.074-0.38,0.103-0.521l0.452-2.206
	l0.45-2.206c0.031-0.152-0.069-0.277-0.225-0.277h-2.872c-0.155,0-0.309,0.125-0.341,0.277l-0.617,2.929l-0.617,2.929
	c-0.001,0.001-0.001,0.004-0.001,0.005l-0.058,0.271c-0.711,3.247-0.522,6.343,3.344,6.44c0.062,0.001,0.11,0.003,0.11,0.003h6.067
	c0.155,0,0.309-0.125,0.342-0.277l1.308-6.15l1.309-6.149C58.988,3.58,58.886,3.456,58.731,3.456L58.731,3.456z"/>
<path fill="#3F3F3F" d="M69.891,13.23c0.155,0,0.257,0.125,0.227,0.276l-0.272,1.327"/>
<path fill="#3F3F3F" d="M69.574,16.163l0.271-1.329L69.574,16.163L69.574,16.163L69.574,16.163z"/>
<path fill="#3F3F3F" d="M69.234,16.441L69.234,16.441c-0.822,0.007-3.296,0.026-5.156,0.026
	C66.341,16.468,69.234,16.441,69.234,16.441L69.234,16.441z"/>
<path fill="#3F3F3F" d="M62.409,11.521c-0.002-0.146,0.163-0.397,0.318-0.397l-0.349-0.004
	C62.221,12.702,62.409,11.521,62.409,11.521L62.409,11.521z"/>
<path fill="#3F3F3F" d="M64.333,16.466c-0.018,0-0.035,0-0.054,0.002C64.297,16.466,64.315,16.466,64.333,16.466z"/>
<path fill="#3F3F3F" d="M69.891,13.23c0.155,0,0.257,0.125,0.227,0.276l-0.272,1.327l-0.044,0.217"/>
<path fill="#3F3F3F" d="M65.646,16.464c-0.227,0.001-0.452,0.002-0.674,0.002C65.194,16.466,65.42,16.465,65.646,16.464z"/>
<path fill="#3F3F3F" d="M69.235,16.441L69.235,16.441c-0.604,0.005-2.093,0.017-3.578,0.022
	C67.141,16.458,68.631,16.446,69.235,16.441z"/>
<path fill="#3F3F3F" d="M69.574,16.164l0.229-1.113L69.574,16.164L69.574,16.164L69.574,16.164z"/>
<path fill="#3F3F3F" d="M23.566,11.554l0.436-1.927l-0.497,2.201l-0.477,2.244l0.418-1.967
	C23.477,11.953,23.533,11.705,23.566,11.554L23.566,11.554z"/>
<path fill="#3F3F3F" d="M28.768,3.424h-3.072c-0.155,0-0.311,0.123-0.345,0.275L25.06,4.985l-0.292,1.285
	c-0.034,0.152,0.064,0.276,0.22,0.276h3.097c0.154,0,0.309-0.124,0.343-0.276l0.281-1.285l0.281-1.286l0,0
	C29.024,3.547,28.923,3.424,28.768,3.424L28.768,3.424z"/>
<path fill="#3F3F3F" d="M28.099,7.701L28.099,7.701l-0.901,4.169L28.099,7.701z"/>
<path fill="#3F3F3F" d="M19.174,21.514c0,0,1.55,0.02,2.533,0.02C20.959,21.533,19.725,21.52,19.174,21.514L19.174,21.514
	L19.174,21.514z"/>
<path fill="#3F3F3F" d="M24.436,7.7l-0.435,1.927L24.436,7.7z"/>
<path fill="#3F3F3F" d="M27.876,7.425h-3.096c-0.156,0-0.311,0.125-0.345,0.275l-0.435,1.928l-0.436,1.926
	c-0.033,0.151-0.089,0.4-0.121,0.552l-0.418,1.967l-0.418,1.966c-0.031,0.152-0.099,0.396-0.148,0.544c0,0-0.578,1.721-1.551,1.702
	c-0.042-0.001-0.082-0.001-0.122-0.003c-0.47-0.008-0.841-0.015-0.841-0.015h-0.001c-0.155-0.002-0.31,0.118-0.347,0.269
	l-0.32,1.351l-0.321,1.349c-0.036,0.15,0.061,0.276,0.215,0.278c0.552,0.006,1.787,0.021,2.535,0.021c2.429,0,3.71-1.345,4.53-5.219
	l0.961-4.444l0.9-4.17C28.132,7.55,28.032,7.425,27.876,7.425L27.876,7.425z"/>
<path fill="#3F3F3F" d="M71.864,16.311c-0.155,0-0.256-0.125-0.223-0.277l2.33-10.911"/>
<path fill="#3F3F3F" d="M75.102,16.033l0.941-4.657L75.102,16.033z"/>
<path fill="#3F3F3F" d="M71.674,16.171c-0.019-0.075-0.007-0.263,0.025-0.414l1.106-5.179l-1.165,5.455
	c-0.033,0.152,0.067,0.277,0.223,0.277h0.283C71.992,16.311,71.694,16.247,71.674,16.171L71.674,16.171z"/>
<path fill="#3F3F3F" d="M74.917,16.247c-0.085,0.034-0.28,0.063-0.436,0.063h0.281c0.155,0,0.308-0.125,0.34-0.277l0.055-0.277
	C75.127,15.908,75.001,16.213,74.917,16.247L74.917,16.247z"/>
<path fill="#3F3F3F" d="M75.574,13.704l0.415-2.056c0,0.002,0,0.003-0.001,0.005L75.574,13.704L75.574,13.704z"/>
<path fill="#3F3F3F" d="M84.765,5.854l0.128,0.529c0.035,0.152-0.063,0.275-0.218,0.275"/>
<path fill="#3F3F3F" d="M75.158,15.756l0.415-2.051L75.158,15.756z"/>
<path fill="#3F3F3F" d="M84.636,5.31l0.127,0.544L84.636,5.31z"/>
<path fill="#3F3F3F" d="M75.989,11.648c0.031-0.152,0.082-0.398,0.114-0.549l0.444-2.08l-0.503,2.356L75.989,11.648L75.989,11.648z"
	/>
<path fill="#3F3F3F" d="M74.008,4.944c-0.031,0.146-0.07,0.332-0.097,0.454l-1.105,5.18l1.165-5.456L74.008,4.944L74.008,4.944z"/>
<path fill="#3F3F3F" d="M84.891,6.383l-0.128-0.529L84.636,5.31l-0.064-0.274c-0.251-0.977-0.988-1.541-2.593-1.541l-2.496-0.003
	l-2.298-0.002h-0.197h-2.39c-0.154,0-0.309,0.123-0.34,0.275l0,0l-0.115,0.541l-0.135,0.639l-0.037,0.178l-1.165,5.456l-1.105,5.179
	c-0.033,0.151-0.044,0.339-0.026,0.414c0.02,0.076,0.317,0.14,0.473,0.14h2.335c0.154,0,0.351-0.029,0.436-0.063
	c0.084-0.034,0.21-0.339,0.24-0.491l0.416-2.052l0.414-2.051c0-0.002,0-0.003,0.001-0.005l0.056-0.272l0.503-2.356l0.444-2.082
	c0.032-0.151,0.187-0.275,0.341-0.275l7.342-0.004C84.83,6.658,84.927,6.534,84.891,6.383L84.891,6.383z"/>
<path fill="#3F3F3F" d="M94.343,1.589c-0.155,0.001-0.41,0.003-0.565,0.003h-2.35c-0.155,0-0.354,0.104-0.441,0.232l-5.196,7.613
	c-0.089,0.128-0.188,0.109-0.223-0.042l-0.383-1.677c-0.034-0.152-0.19-0.275-0.345-0.275H81.5c-0.156,0-0.248,0.122-0.205,0.271
	l1.496,5.245c0.043,0.149,0.046,0.394,0.008,0.544l-0.652,2.538c-0.039,0.151,0.057,0.274,0.212,0.274h3.303
	c0.155,0,0.313-0.123,0.352-0.274l0.653-2.538c0.038-0.15,0.146-0.375,0.24-0.498l8.436-11.197c0.094-0.124,0.043-0.226-0.112-0.224
	L94.343,1.589L94.343,1.589z"/>
<path fill="#3F3F3F" d="M67.803,8.156V8.154c-0.02,0.168-0.175,0.292-0.329,0.292h-4.236c-0.146,0-0.221-0.1-0.199-0.223
	c0.001-0.004,0.002-0.007,0.004-0.01c0,0-0.002,0-0.003,0.001c0.001-0.005,0.001-0.009,0.003-0.015c0,0,0.008-0.029,0.02-0.071
	c0.403-1.075,1.229-1.781,2.776-1.781C67.583,6.348,67.921,7.199,67.803,8.156L67.803,8.156z M66.561,3.269
	c-5.437,0-6.725,3.3-7.447,6.63c-0.723,3.395-0.661,6.569,4.965,6.569h0.199c0.018-0.002,0.037-0.002,0.054-0.002h0.158h0.058h0.147
	c0.022,0,0.044,0,0.066,0c0.056,0,0.112,0,0.169,0h0.04c0.223,0,0.449-0.001,0.676-0.002h0.011c1.485-0.006,2.975-0.018,3.579-0.022
	c0.154-0.002,0.305-0.126,0.337-0.277l0.229-1.113l0.044-0.217l0.271-1.327c0.031-0.151-0.07-0.276-0.226-0.276h-5.059
	c-2.011,0-2.608-0.535-2.389-2.106h8.085v0.001c0.001,0,0.003-0.001,0.005-0.001c0.129-0.002,0.247-0.091,0.295-0.209
	c0.009-0.022,0.017-0.046,0.02-0.071l-0.001,0.002C72.046,6.317,71.703,3.269,66.561,3.269L66.561,3.269z"/>
<path fill="#3F3F3F" d="M40.868,8.14L40.79,8.41c0,0.002,0,0.002,0,0.002l-0.61,2.163l-0.609,2.163
	c-0.043,0.148-0.205,0.271-0.36,0.271h-3.23c-2.451,0-3.048-1.917-2.451-4.745c0.597-2.892,1.767-4.688,4.178-4.871
	C41.003,3.146,41.663,5.464,40.868,8.14L40.868,8.14z M43.083,12.844c0,0,1.522-3.7,1.869-5.836C45.423,4.147,43.992,0,38.461,0
	c-5.5,0-7.888,3.96-8.8,8.265c-0.91,4.337,0.283,8.139,5.751,8.108l4.313-0.016l4.032-0.016c0.155-0.002,0.313-0.125,0.354-0.274
	l0.702-2.679c0.038-0.15-0.056-0.273-0.211-0.274l-0.675-0.004l-0.672-0.005c-0.133-0.001-0.207-0.086-0.192-0.2
	C43.068,12.886,43.073,12.864,43.083,12.844L43.083,12.844z"/>
<path fill="#3F3F3F" d="M70.306,10.367c0,0.103-0.082,0.186-0.185,0.186s-0.186-0.083-0.186-0.186s0.083-0.185,0.186-0.185
	S70.306,10.265,70.306,10.367z"/>
<path fill="#3F3F3F" d="M1.089,5.558c-1.52,2.183-1.329,5.022-0.17,7.342c0.028,0.055,0.057,0.11,0.086,0.164
	c0.018,0.035,0.035,0.071,0.054,0.105c0.01,0.02,0.022,0.04,0.034,0.061c0.02,0.036,0.04,0.071,0.06,0.107
	c0.036,0.063,0.073,0.126,0.111,0.189c0.021,0.034,0.042,0.07,0.063,0.104c0.042,0.067,0.085,0.134,0.129,0.2
	c0.019,0.029,0.036,0.058,0.055,0.086c0.061,0.09,0.122,0.18,0.187,0.268c0,0.002,0.003,0.005,0.005,0.008
	c0.01,0.014,0.021,0.028,0.032,0.042c0.055,0.075,0.111,0.15,0.169,0.226c0.021,0.027,0.042,0.055,0.063,0.081
	c0.052,0.064,0.104,0.129,0.156,0.192c0.021,0.024,0.041,0.049,0.061,0.072c0.072,0.084,0.145,0.167,0.218,0.249
	c0.002,0.002,0.004,0.003,0.005,0.005c0.003,0.003,0.006,0.006,0.009,0.009c0.072,0.08,0.146,0.157,0.222,0.234
	c0.023,0.024,0.047,0.048,0.071,0.071c0.059,0.06,0.118,0.116,0.177,0.174c0.024,0.023,0.049,0.047,0.072,0.069
	c0.082,0.075,0.162,0.149,0.243,0.221c0.003,0.002,0.003,0.002,0.004,0.003c0.015,0.013,0.028,0.024,0.043,0.036
	c0.072,0.063,0.146,0.125,0.221,0.187c0.03,0.025,0.061,0.05,0.091,0.074c0.061,0.048,0.122,0.095,0.184,0.143
	c0.033,0.024,0.065,0.05,0.1,0.074c0.067,0.051,0.137,0.1,0.205,0.148c0.025,0.018,0.051,0.036,0.075,0.053
	c0.008,0.006,0.015,0.011,0.021,0.016c0.065,0.045,0.133,0.088,0.199,0.132c0.029,0.02,0.058,0.041,0.088,0.059
	c0.103,0.064,0.207,0.13,0.313,0.192c0.03,0.017,0.059,0.032,0.088,0.049c0.077,0.044,0.155,0.089,0.235,0.133
	c0.043,0.021,0.087,0.044,0.13,0.066c0.057,0.029,0.112,0.059,0.168,0.087c0.014,0.007,0.027,0.013,0.04,0.02
	c0.023,0.011,0.046,0.021,0.068,0.032c0.089,0.043,0.178,0.085,0.269,0.125c0.018,0.008,0.036,0.016,0.056,0.025
	c0.104,0.044,0.207,0.088,0.312,0.128c0.024,0.011,0.051,0.021,0.075,0.031c0.098,0.036,0.195,0.073,0.295,0.108
	c0.012,0.004,0.024,0.008,0.036,0.013c0.108,0.038,0.218,0.072,0.329,0.106c0.025,0.008,0.052,0.017,0.078,0.025
	c0.112,0.032,0.224,0.073,0.338,0.095c7.344,1.339,9.478-4.413,9.478-4.413c-1.792,2.334-4.972,2.949-7.984,2.265
	c-0.114-0.026-0.227-0.063-0.336-0.095c-0.029-0.009-0.057-0.017-0.085-0.025c-0.108-0.033-0.216-0.068-0.323-0.104
	c-0.015-0.007-0.029-0.012-0.045-0.018c-0.096-0.033-0.19-0.069-0.285-0.105c-0.026-0.01-0.055-0.021-0.079-0.031
	c-0.105-0.041-0.207-0.084-0.31-0.129c-0.021-0.007-0.041-0.018-0.061-0.026c-0.088-0.039-0.175-0.08-0.261-0.121
	c-0.025-0.012-0.051-0.023-0.075-0.036c-0.067-0.033-0.135-0.067-0.201-0.103c-0.045-0.023-0.09-0.046-0.134-0.07
	c-0.082-0.043-0.162-0.09-0.242-0.134c-0.026-0.017-0.054-0.031-0.081-0.046c-0.105-0.063-0.21-0.127-0.313-0.192
	c-0.029-0.019-0.058-0.038-0.085-0.057c-0.075-0.049-0.15-0.098-0.225-0.148c-0.024-0.017-0.048-0.034-0.071-0.051
	C5.47,14.308,5.4,14.257,5.33,14.205c-0.031-0.023-0.063-0.048-0.094-0.071c-0.063-0.049-0.126-0.099-0.189-0.149
	c-0.029-0.022-0.058-0.045-0.086-0.067c-0.08-0.066-0.159-0.132-0.237-0.2c-0.008-0.007-0.017-0.014-0.025-0.021
	c-0.085-0.074-0.168-0.151-0.25-0.227c-0.024-0.024-0.047-0.046-0.07-0.068c-0.061-0.058-0.12-0.116-0.179-0.176
	c-0.024-0.023-0.047-0.047-0.07-0.07c-0.074-0.076-0.148-0.153-0.22-0.232c-0.004-0.004-0.008-0.008-0.011-0.012
	c-0.077-0.083-0.151-0.169-0.224-0.254c-0.02-0.023-0.038-0.046-0.059-0.069c-0.054-0.065-0.108-0.131-0.16-0.198
	c-0.021-0.024-0.04-0.049-0.06-0.073c-0.063-0.082-0.125-0.164-0.185-0.247C1.539,9.787,0.937,6.641,2.274,4.055"/>
<path fill="#3F3F3F" d="M5.802,3.719C4.705,5.3,4.764,7.415,5.621,9.087c0.145,0.28,0.306,0.551,0.486,0.811
	c0.164,0.236,0.347,0.517,0.564,0.706c0.08,0.087,0.162,0.173,0.246,0.255c0.022,0.022,0.045,0.044,0.065,0.064
	c0.082,0.08,0.166,0.158,0.252,0.233c0.003,0.004,0.007,0.007,0.01,0.009c0.002,0.002,0.002,0.002,0.003,0.003
	c0.096,0.084,0.194,0.164,0.294,0.243c0.021,0.018,0.044,0.034,0.067,0.053c0.101,0.076,0.202,0.151,0.307,0.225
	c0.003,0.001,0.006,0.004,0.01,0.006c0.046,0.032,0.093,0.063,0.141,0.093c0.021,0.015,0.043,0.03,0.065,0.044
	c0.075,0.048,0.15,0.096,0.229,0.14c0.011,0.007,0.021,0.012,0.032,0.019c0.066,0.039,0.133,0.076,0.201,0.112
	c0.023,0.014,0.048,0.025,0.071,0.038c0.047,0.024,0.094,0.05,0.142,0.072c0.007,0.004,0.015,0.008,0.021,0.011
	c0.097,0.047,0.193,0.093,0.294,0.137c0.021,0.009,0.043,0.017,0.064,0.025c0.08,0.035,0.16,0.068,0.241,0.099
	c0.034,0.013,0.069,0.025,0.104,0.038c0.072,0.027,0.147,0.053,0.221,0.077c0.034,0.011,0.067,0.021,0.101,0.031
	c0.104,0.033,0.21,0.075,0.319,0.094c5.67,0.938,6.979-3.427,6.979-3.427c-1.181,1.699-3.466,2.51-5.904,1.877
	c-0.108-0.027-0.215-0.06-0.321-0.093c-0.031-0.01-0.063-0.02-0.096-0.031c-0.075-0.024-0.15-0.051-0.225-0.077
	c-0.034-0.012-0.068-0.024-0.102-0.038c-0.081-0.031-0.162-0.063-0.242-0.097c-0.021-0.01-0.043-0.019-0.064-0.027
	c-0.1-0.044-0.199-0.09-0.296-0.139c-0.051-0.023-0.1-0.05-0.148-0.074c-0.028-0.016-0.058-0.03-0.085-0.045
	c-0.064-0.033-0.127-0.069-0.188-0.106c-0.015-0.007-0.029-0.016-0.045-0.025c-0.077-0.044-0.152-0.09-0.228-0.139
	c-0.022-0.015-0.045-0.029-0.068-0.045c-0.049-0.033-0.098-0.064-0.146-0.097c-0.104-0.072-0.207-0.148-0.307-0.225
	C8.662,9.897,8.639,9.88,8.616,9.861C7.548,9.019,6.703,7.867,6.3,6.561C5.878,5.207,5.969,3.687,6.7,2.452"/>
<path fill="#3F3F3F" d="M9.767,2.346C9.12,3.298,9.057,4.481,9.505,5.534c0.474,1.116,1.444,1.992,2.578,2.408
	c0.046,0.018,0.093,0.033,0.14,0.05c0.021,0.005,0.041,0.012,0.063,0.019c0.066,0.021,0.134,0.045,0.202,0.059
	c3.13,0.604,3.979-1.607,4.205-1.933c-0.743,1.071-1.994,1.328-3.527,0.956c-0.121-0.029-0.254-0.073-0.371-0.115
	c-0.149-0.053-0.297-0.113-0.44-0.182c-0.272-0.132-0.532-0.29-0.772-0.472c-1.372-1.042-2.225-3.028-1.33-4.646"/>
</svg>
