<?xml version="1.0" encoding="utf-8"?>
<!-- Generator: Adobe Illustrator 12.0.0, SVG Export Plug-In  -->
<!DOCTYPE svg PUBLIC "-//W3C//DTD SVG 1.1//EN" "http://www.w3.org/Graphics/SVG/1.1/DTD/svg11.dtd" [
	<!ENTITY ns_flows "http://ns.adobe.com/Flows/1.0/">
	<!ENTITY ns_svg "http://www.w3.org/2000/svg">
	<!ENTITY ns_xlink "http://www.w3.org/1999/xlink">
]>
<svg  version="1.1" xmlns="&ns_svg;" xmlns:xlink="&ns_xlink;" xmlns:a="http://ns.adobe.com/AdobeSVGViewerExtensions/3.0/"
	 width="104" height="105" viewBox="-0.628 -0.503 104 105" enable-background="new -0.628 -0.503 104 105" xml:space="preserve">
<defs>
</defs>
<path d="M42.468,21.308c11.974-18.156,22.64-16.052,24.613-7.096c1.967,8.943-2.768,20.787-5.01,25.39
	c-2.499,5.135-13.277,21.86-19.603,19.084c-3.289-1.447-4.078-9.338-1.704-19.742c1.046-4.735,5.129-12.764,6.701-14.743
	c3.69-3.946,11.456-5.787,11.456,3.82c-0.139,11.325-8.818,20.281-11.317,19.611c-1.309-0.395-2.242-3.295-1.19-8.155
	c1.979-8.299,5.793-6.575,5.793-6.575s-1.453,1.564-2.36,3.551c-0.657,1.702-1.314,5.392,0.133,5.924
	c0.775,0.256,2.616-1.584,3.944-3.828c0.658-1.189,1.309-2.893,1.572-3.946c0.533-3.149-0.914-11.316-7.103-5.128
	c-4.873,4.991-7.107,19.741-3.551,22.633c2.9,2.236,9.345-4.207,13.94-12.762c2.514-4.88,4.223-11.976,3.684-17.506
	c-1.045-11.455-13.021-6.977-17.894,1.315c-1.704,3.025-4.999,8.556-6.708,15.138c-3.282,12.37-2.887,25.923,1.973,27.634
	c7.904,2.768,21.72-17.111,25.922-25.792c4.873-10.126,7.636-21.582,6.576-30.408c-1.308-10.916-16.308-18.15-33.294,9.477
	c-0.913,1.13-0.913,1.848-0.913,1.848l3.426,1.841C41.554,22.893,41.586,22.663,42.468,21.308z"/>
<path d="M68.18,77.375l1.71-0.65c0,0,1.578,6.32,3.15,8.286c2.373,2.893,7.647,5.274,10.798,3.688
	c4.741-2.637,4.208-9.613,4.208-9.613s1.578,2.374,2.631,8.16c1.453,7.773-1.704,10.922-4.479,12.251
	c-3.945,1.842-10.127,0.119-10.127,0.119l0.395-1.31l-1.979-0.651l-2.224,4.991l2.361,0.915l0.533-1.564
	c0,0,5.654,2.354,9.989,1.172c4.741-1.31,9.081-2.896,9.357-11.7c0.126-8.82-5.531-16.725-5.531-16.725h1.585l-0.276-2.103h-7.095
	v1.841l1.842,0.138c0,0,0.914,9.733-3.822,10.784c-5.793,1.447-8.943-9.476-8.943-9.476s2.224-0.789,2.756-1.052
	c0.532-0.133-0.789-1.704-0.789-1.704l-6.701,2.361L68.18,77.375z"/>
<path d="M23.694,80.406c-4.072-6.582-21.451-6.582-21.451-6.582l-0.402-1.833L0,72.501l0.539,4.479l1.704-0.137l-0.139-1.047h2.374
	l1.19,20.788l-2.893,0.399l-0.277-1.965H0.539l0.651,6.84l2.493-0.402L3.169,99.22c0,0,4.86,0.396,13.678-3.148
	C25.016,92.777,27.375,86.339,23.694,80.406z M21.59,86.594c-0.915,6.576-13.292,9.214-13.292,9.214l-1.715-19.34
	C6.583,76.468,22.773,78.428,21.59,86.594z"/>
<polygon points="25.666,78.96 31.453,78.172 33.958,92.521 35.28,92.38 35.675,95.533 27.514,96.722 26.981,93.434 28.698,93.295 
	28.046,79.875 25.929,80.137 "/>
<path d="M27.77,71.851c0.533,1.447,0.138,3.025-1.17,3.945c-1.189,0.928-5.01-0.263-4.879-2.498
	c0.125-2.105,0.521-2.499,1.842-2.893C24.752,70.004,27.375,70.406,27.77,71.851z"/>
<polygon points="34.622,75.796 33.558,80.012 36.194,80.406 36.333,79.617 47.512,82.767 40.93,97.511 53.693,97.655 53.831,98.827 
	56.073,98.306 56.205,94.083 54.37,94.083 54.233,94.625 47.118,94.486 54.884,81.065 36.194,77.375 36.471,76.468 "/>
<polygon points="47.789,74.226 48.563,78.822 51.201,78.69 50.938,77.375 60.808,75.534 56.98,95.274 70.284,96.861 70.146,98.306 
	72.521,97.774 72.521,93.572 70.54,93.434 70.284,94.881 60.275,92.64 66.989,71.726 50.28,74.876 50.011,74.087 "/>
<path d="M25.363,102.555l1.447-3.808c0,0,0.302-0.671,0.88-0.488c0.566,0.166,0.461,0.717,0.461,0.717l-1.447,3.821
	c0,0-0.244,0.764-0.855,0.6C25.16,103.212,25.363,102.555,25.363,102.555z"/>
<path d="M30.236,103.093l-0.532-3.826c0,0-0.105-0.638,0.532-0.744c0.69-0.124,0.776,0.453,0.776,0.453l0.533,3.821
	c0,0-0.027,0.737-0.488,0.796C30.315,103.686,30.236,103.093,30.236,103.093z"/>
<path d="M37.332,103.048l-3.149-3.552c0,0-0.29-0.428,0.124-0.79c0.532-0.492,1.02,0.054,1.02,0.054l3.156,3.558
	c0,0,0.329,0.395-0.045,0.851C38.022,103.745,37.332,103.048,37.332,103.048z"/>
<path d="M95.858,82.05l5.275,0.125c0,0,0.604-0.104,0.604-0.578c0-0.488-0.658-0.717-0.658-0.717l-5.267-0.118
	c0,0-0.592,0.013-0.605,0.604C95.175,81.964,95.858,82.05,95.858,82.05z"/>
<path d="M96.148,85.805l5.392,4.196c0,0,0.611,0.354,0.9-0.164c0.29-0.521-0.217-0.928-0.217-0.928l-5.405-4.203
	c0,0-0.506-0.308-0.821,0.131C95.569,85.392,96.148,85.805,96.148,85.805z"/>
<path d="M94.55,77.329l6.043-3.8c0,0,0.396-0.402,0.928,0.164c0.521,0.578-0.348,1.079-0.348,1.079l-6.064,3.807
	c0,0-0.375,0.138-0.697-0.27C94.043,77.823,94.55,77.329,94.55,77.329z"/>
</svg>
