<?xml version="1.0" encoding="utf-8"?>
<!-- Generator: Adobe Illustrator 12.0.0, SVG Export Plug-In  -->
<!DOCTYPE svg PUBLIC "-//W3C//DTD SVG 1.1//EN" "http://www.w3.org/Graphics/SVG/1.1/DTD/svg11.dtd" [
	<!ENTITY ns_flows "http://ns.adobe.com/Flows/1.0/">
	<!ENTITY ns_svg "http://www.w3.org/2000/svg">
	<!ENTITY ns_xlink "http://www.w3.org/1999/xlink">
]>
<svg  version="1.1" xmlns="&ns_svg;" xmlns:xlink="&ns_xlink;" xmlns:a="http://ns.adobe.com/AdobeSVGViewerExtensions/3.0/"
	 width="27" height="20" viewBox="-0.408 -0.421 27 20" enable-background="new -0.408 -0.421 27 20" xml:space="preserve">
<defs>
</defs>
<path fill="#00A6CF" d="M24.053,5.14c0,0.134-0.187,0.753-0.187,0.887c0,0.188,0.161,0.323,0.538,0.35
	c0.511,0.054,1.452,0.618,1.452,1.614c0,0.619-0.16,1.049-0.296,1.292c-0.081,0.107-0.106,0.215-0.106,0.295
	c0,0.108,0.053,0.214,0.133,0.323c0.243,0.296,0.942,0.78,0.942,1.883c0,1.131-1.318,2.234-1.318,2.61
	c0,0.484,0.404,0.351,0.404,0.888c0,1.399-3.015,3.472-6.377,3.472c-3.496,0-4.655-1.265-5.004-1.642
	c-0.242-0.296-0.565-0.431-0.888-0.431c-0.322,0-0.645,0.107-0.942,0.378c-0.458,0.376-2.986,1.694-4.897,1.694
	c-4.683,0-7.426-2.96-7.426-3.955c0-0.619,0.646-0.484,0.646-1.022C0.728,13.346,0,12.889,0,11.678c0-1.265,0.565-1.749,1.023-2.019
	C1.156,9.579,1.21,9.498,1.21,9.364c0-0.081-0.054-0.188-0.135-0.297C0.942,8.934,0.673,8.314,0.673,7.668
	c0-1.077,0.86-1.506,1.535-1.614c0.456-0.08,0.565-0.296,0.565-0.833c0-2.422,1.292-2.422,2.231-2.422
	c0.19,0,0.378-0.026,0.566-0.107c0.538-0.27,0.565-0.807,0.78-1.13c0.351-0.484,0.968-0.942,1.937-0.942
	c0.754,0,1.319,0.351,1.777,0.646c0.161,0.108,0.295,0.162,0.456,0.162c0.162,0,0.323-0.08,0.458-0.242
	C11.328,0.753,12.001,0,13.373,0c1.454,0,1.963,0.591,2.395,1.184c0.162,0.242,0.377,0.323,0.564,0.323
	c0.161,0,0.297-0.054,0.404-0.135c0.297-0.242,0.888-0.646,1.721-0.646c1.104,0,1.857,0.834,2.072,1.722
	c0.055,0.242,0.27,0.376,0.513,0.376C22.872,2.664,24.053,3.929,24.053,5.14z M1.723,10.951c-0.458,0-0.754,0.619-0.754,0.996
	c0,1.909,4.683,3.148,5.865,3.148c0.215,0,0.351-0.082,0.351-0.189s-1.077-0.861-1.399-1.05C5.194,13.453,2.502,10.951,1.723,10.951
	z M1.776,14.691c-0.187,0-0.323,0.134-0.323,0.296c0,0.483,3.041,2.583,6.161,2.583c0.753,0,5.058-0.566,5.058-4.332
	c0-2.207-1.316-3.579-3.121-3.579c-1.507,0-2.879,0.969-2.879,2.26c0,1.454,1.158,2.1,1.938,2.1c0.511,0,1.318-0.296,1.318-0.754
	c0-0.188-0.055-0.403-0.297-0.403c-0.133,0-0.536,0.27-0.646,0.27c-0.188,0-0.914-0.242-0.914-0.889c0-0.377,0.43-1.184,1.479-1.184
	c0.377,0,1.776,0.27,1.776,1.803c0,2.663-2.609,3.553-3.82,3.553c-0.887,0-2.045-0.136-2.988-0.485
	c-0.858-0.323-2.098-0.995-2.553-1.184C1.911,14.691,1.831,14.691,1.776,14.691z M2.692,6.969c-0.701,0-0.89,0.671-0.89,1.129
	c0,1.157,1.804,3.149,3.069,3.149c0.564,0,0.969-0.486,0.969-0.916c0-0.457-1.966-2.959-2.234-3.121
	C3.363,7.076,3.015,6.969,2.692,6.969z M3.955,5.112c0,1.399,1.91,3.955,2.934,3.955c0.403,0,1.023-0.403,1.023-0.915
	c0-0.161-0.968-2.071-1.05-2.232C6.055,4.305,5.865,3.929,4.871,3.929c-0.135,0-0.27,0.025-0.377,0.081
	C4.144,4.224,3.955,4.547,3.955,5.112z M10.387,8.369c0.349,0,0.645-0.189,0.645-0.593c0-0.162-0.296-5.919-2.61-5.919
	c-0.107,0-1.238,0.108-1.238,1.346C7.185,4.224,8.798,8.369,10.387,8.369z M13.373,1.264c-1.211,0-1.775,1.454-1.775,2.583
	c0,1.829,0.752,6.107,1.749,6.107c1.263,0,1.828-5.058,1.828-6.081c0-0.295-0.025-0.565-0.08-0.752
	C14.907,2.396,14.396,1.264,13.373,1.264z M16.898,12.942c-0.188,0.08-0.297,0.296-0.297,0.483c0,0.458,0.62,0.699,1.13,0.699
	c0.727,0,2.126-0.645,2.101-2.26c-0.028-1.533-0.997-2.287-2.505-2.287c-1.504,0-3.309,1.183-3.309,3.686
	c0,4.252,4.654,4.413,5.059,4.413c3.363,0,5.139-1.856,5.139-2.153c0-0.187-0.188-0.349-0.402-0.349c-0.082,0-0.162,0-0.242,0.053
	c-1.883,1.238-3.578,1.238-4.439,1.238c-0.107,0-3.957-0.107-3.957-3.175c0-1.292,1.184-2.313,2.396-2.313
	c0.593,0,1.048,0.16,1.048,0.834c0,0.618-0.535,0.807-0.807,0.914C17.489,12.861,17.221,12.834,16.898,12.942z M15.713,7.48
	c0,0.511,0.055,1.05,0.645,1.05c2.047,0,3.203-5.086,3.203-5.355c0-0.699-0.484-1.184-1.236-1.184c-0.594,0-1.078,0.431-1.373,0.889
	C16.198,4.036,15.713,6.107,15.713,7.48z M20.799,13.75c-0.807,0.511-1.613,1.049-1.613,1.129c0,0.162,0.322,0.242,0.536,0.242
	c3.363,0,5.598-2.152,5.598-3.121c0-0.377-0.379-0.727-0.808-0.727c-0.323,0-0.699,0.188-1.13,0.539
	C22.737,12.403,21.579,13.238,20.799,13.75z M19.239,7.938c0,0.94,0.779,1.049,0.969,1.049c1.103,0,2.772-3.013,2.772-3.847
	c0-0.835-1.024-1.211-1.454-1.211c-0.322,0-0.619,0.107-0.888,0.431C20.1,4.924,19.239,7.292,19.239,7.938z M21.042,10.709
	c0,0.295,0.132,0.861,0.616,0.861c1.023,0,3.041-2.1,3.041-3.31c0-0.62-0.592-0.808-0.969-0.808c-0.349,0-0.751,0.162-1.102,0.512
	C21.794,8.853,21.042,9.687,21.042,10.709z"/>
</svg>
