<?xml version="1.0" encoding="utf-8"?>
<!-- Generator: Adobe Illustrator 12.0.0, SVG Export Plug-In  -->
<!DOCTYPE svg PUBLIC "-//W3C//DTD SVG 1.1//EN" "http://www.w3.org/Graphics/SVG/1.1/DTD/svg11.dtd" [
	<!ENTITY ns_flows "http://ns.adobe.com/Flows/1.0/">
	<!ENTITY ns_svg "http://www.w3.org/2000/svg">
	<!ENTITY ns_xlink "http://www.w3.org/1999/xlink">
]>
<svg  version="1.1" xmlns="&ns_svg;" xmlns:xlink="&ns_xlink;" xmlns:a="http://ns.adobe.com/AdobeSVGViewerExtensions/3.0/"
	 width="21" height="15" viewBox="-0.871 -0.76 21 15" enable-background="new -0.871 -0.76 21 15" xml:space="preserve">
<defs>
</defs>
<path d="M18.055,3.857c0,0.101-0.141,0.565-0.141,0.666c0,0.142,0.121,0.242,0.404,0.263c0.383,0.04,1.09,0.464,1.09,1.211
	c0,0.465-0.121,0.788-0.223,0.97c-0.061,0.08-0.08,0.161-0.08,0.222c0,0.081,0.039,0.161,0.1,0.242
	c0.183,0.222,0.708,0.585,0.708,1.413c0,0.85-0.989,1.678-0.989,1.959c0,0.364,0.303,0.264,0.303,0.667
	c0,1.05-2.262,2.605-4.787,2.605c-2.623,0-3.493-0.949-3.756-1.231c-0.181-0.223-0.424-0.324-0.666-0.324
	c-0.242,0-0.484,0.081-0.708,0.283c-0.344,0.283-2.241,1.272-3.676,1.272c-3.515,0-5.574-2.222-5.574-2.969
	c0-0.465,0.485-0.363,0.485-0.767C0.546,10.017,0,9.674,0,8.765C0,7.815,0.424,7.452,0.768,7.25c0.1-0.061,0.141-0.121,0.141-0.222
	c0-0.061-0.041-0.142-0.102-0.223c-0.1-0.101-0.302-0.565-0.302-1.05c0-0.808,0.646-1.13,1.152-1.211
	C2,4.483,2.081,4.321,2.081,3.918C2.081,2.1,3.05,2.1,3.756,2.1c0.143,0,0.284-0.02,0.425-0.081
	c0.403-0.202,0.424-0.606,0.585-0.848C5.03,0.808,5.493,0.464,6.22,0.464c0.566,0,0.99,0.263,1.334,0.485
	C7.675,1.03,7.775,1.07,7.896,1.07c0.122,0,0.243-0.06,0.344-0.182C8.502,0.565,9.008,0,10.038,0c1.091,0,1.474,0.443,1.797,0.888
	c0.122,0.182,0.283,0.243,0.425,0.243c0.12,0,0.222-0.041,0.303-0.101c0.223-0.182,0.666-0.485,1.291-0.485
	c0.828,0,1.395,0.626,1.556,1.293C15.45,2.02,15.611,2.12,15.794,2.12C17.168,1.999,18.055,2.949,18.055,3.857z M1.293,8.22
	c-0.344,0-0.566,0.465-0.566,0.747c0,1.434,3.515,2.363,4.402,2.363c0.162,0,0.263-0.062,0.263-0.142
	c0-0.081-0.808-0.646-1.05-0.788C3.898,10.098,1.878,8.22,1.293,8.22z M1.333,11.026c-0.141,0-0.242,0.102-0.242,0.223
	c0,0.363,2.282,1.938,4.625,1.938c0.565,0,3.796-0.425,3.796-3.251c0-1.656-0.988-2.687-2.342-2.687
	c-1.131,0-2.161,0.728-2.161,1.696c0,1.092,0.869,1.576,1.455,1.576c0.383,0,0.989-0.223,0.989-0.566
	c0-0.142-0.041-0.303-0.223-0.303c-0.1,0-0.402,0.202-0.484,0.202c-0.141,0-0.686-0.182-0.686-0.667c0-0.282,0.323-0.889,1.11-0.889
	c0.283,0,1.333,0.203,1.333,1.354c0,1.999-1.958,2.666-2.868,2.666c-0.666,0-1.535-0.102-2.243-0.363
	c-0.645-0.243-1.575-0.747-1.917-0.889C1.435,11.026,1.374,11.026,1.333,11.026z M2.021,5.231c-0.526,0-0.668,0.504-0.668,0.848
	c0,0.869,1.354,2.364,2.304,2.364c0.423,0,0.727-0.365,0.727-0.688c0-0.344-1.476-2.221-1.677-2.342
	C2.524,5.311,2.263,5.231,2.021,5.231z M2.969,3.837c0,1.05,1.434,2.969,2.202,2.969c0.303,0,0.768-0.303,0.768-0.687
	c0-0.121-0.727-1.554-0.788-1.675C4.545,3.231,4.402,2.949,3.656,2.949c-0.102,0-0.203,0.019-0.283,0.061
	C3.11,3.17,2.969,3.413,2.969,3.837z M7.796,6.281c0.262,0,0.484-0.142,0.484-0.445c0-0.121-0.223-4.443-1.959-4.443
	c-0.081,0-0.929,0.081-0.929,1.01C5.393,3.17,6.604,6.281,7.796,6.281z M10.038,0.949c-0.909,0-1.333,1.091-1.333,1.939
	c0,1.373,0.564,4.584,1.313,4.584c0.948,0,1.372-3.796,1.372-4.564c0-0.222-0.019-0.424-0.06-0.565
	C11.188,1.798,10.806,0.949,10.038,0.949z M12.684,9.714c-0.141,0.061-0.223,0.223-0.223,0.363c0,0.344,0.465,0.525,0.848,0.525
	c0.545,0,1.596-0.484,1.576-1.696c-0.021-1.151-0.748-1.717-1.879-1.717c-1.13,0-2.484,0.888-2.484,2.767
	c0,3.191,3.494,3.313,3.797,3.313c2.524,0,3.857-1.394,3.857-1.616c0-0.141-0.141-0.262-0.303-0.262c-0.061,0-0.121,0-0.182,0.04
	c-1.412,0.929-2.686,0.929-3.332,0.929c-0.08,0-2.97-0.081-2.97-2.383c0-0.97,0.889-1.736,1.798-1.736
	c0.445,0,0.787,0.12,0.787,0.626c0,0.464-0.402,0.605-0.605,0.687C13.127,9.653,12.926,9.633,12.684,9.714z M11.794,5.614
	c0,0.383,0.041,0.788,0.484,0.788c1.536,0,2.403-3.817,2.403-4.02c0-0.525-0.363-0.889-0.928-0.889c-0.445,0-0.809,0.323-1.03,0.667
	C12.158,3.029,11.794,4.584,11.794,5.614z M15.611,10.319c-0.605,0.385-1.211,0.788-1.211,0.849c0,0.121,0.242,0.182,0.402,0.182
	c2.525,0,4.201-1.615,4.201-2.343c0-0.282-0.283-0.545-0.605-0.545c-0.242,0-0.525,0.141-0.848,0.404
	C17.066,9.31,16.196,9.937,15.611,10.319z M14.439,5.958c0,0.706,0.586,0.787,0.728,0.787c0.828,0,2.081-2.262,2.081-2.888
	c0-0.626-0.768-0.909-1.091-0.909c-0.243,0-0.465,0.08-0.667,0.323C15.086,3.696,14.439,5.473,14.439,5.958z M15.794,8.038
	c0,0.221,0.1,0.646,0.463,0.646c0.769,0,2.282-1.576,2.282-2.484c0-0.465-0.443-0.606-0.727-0.606c-0.262,0-0.564,0.122-0.827,0.384
	C16.358,6.645,15.794,7.271,15.794,8.038z"/>
</svg>
