<?xml version="1.0" encoding="utf-8"?>
<!-- Generator: Adobe Illustrator 12.0.0, SVG Export Plug-In  -->
<!DOCTYPE svg PUBLIC "-//W3C//DTD SVG 1.1//EN" "http://www.w3.org/Graphics/SVG/1.1/DTD/svg11.dtd" [
	<!ENTITY ns_flows "http://ns.adobe.com/Flows/1.0/">
	<!ENTITY ns_svg "http://www.w3.org/2000/svg">
	<!ENTITY ns_xlink "http://www.w3.org/1999/xlink">
]>
<svg  version="1.1" xmlns="&ns_svg;" xmlns:xlink="&ns_xlink;" xmlns:a="http://ns.adobe.com/AdobeSVGViewerExtensions/3.0/"
	 width="46" height="46" viewBox="-0.264 -0.941 46 46" enable-background="new -0.264 -0.941 46 46" xml:space="preserve">
<defs>
</defs>
<path fill="none" stroke="#00B0E1" stroke-width="0.1" d="M25.56,19.95c7.5,9.789,12.161,18.816,10.408,20.162
	c-1.752,1.339-9.258-5.506-16.758-15.298C11.71,15.024,7.047,5.991,8.802,4.646C10.556,3.305,18.059,10.152,25.56,19.95z"/>
<path fill="none" stroke="#00B0E1" stroke-width="0.1" d="M25.38,19.735c8.168,9.241,13.448,17.921,11.793,19.384
	c-1.654,1.461-9.619-4.845-17.784-14.088C11.224,15.786,5.943,7.1,7.599,5.639C9.255,4.177,17.216,10.484,25.38,19.735z"/>
<path fill="none" stroke="#00B0E1" stroke-width="0.1" d="M25.188,19.53c8.793,8.654,14.664,16.943,13.116,18.519
	c-1.549,1.57-9.937-4.165-18.725-12.815C10.79,16.582,4.917,8.284,6.467,6.709C8.016,5.137,16.397,10.874,25.188,19.53z"/>
<path fill="none" stroke="#00B0E1" stroke-width="0.1" d="M24.983,19.342c9.373,8.016,15.811,15.877,14.373,17.559
	c-1.434,1.675-10.197-3.464-19.57-11.48C10.413,17.405,3.977,9.537,5.412,7.857C6.849,6.18,15.61,11.317,24.983,19.342z"/>
<path fill="none" stroke="#00B0E1" stroke-width="0.1" d="M24.768,19.168c9.906,7.345,16.878,14.736,15.562,16.512
	c-1.314,1.771-10.418-2.74-20.325-10.086c-9.908-7.346-16.88-14.74-15.562-16.516C5.757,7.303,14.855,11.818,24.768,19.168z"/>
<path fill="none" stroke="#00B0E1" stroke-width="0.1" d="M24.534,19.012C34.933,25.646,42.4,32.534,41.215,34.397
	c-1.188,1.859-10.585-2.011-20.98-8.645C9.837,19.117,2.368,12.222,3.557,10.361C4.745,8.501,14.138,12.369,24.534,19.012z"/>
<path fill="none" stroke="#00B0E1" stroke-width="0.1" d="M24.297,18.868c10.835,5.894,18.765,12.241,17.71,14.186
	c-1.057,1.938-10.699-1.265-21.532-7.157C9.643,20,1.71,13.646,2.765,11.705C3.821,9.767,13.458,12.968,24.297,18.868z"/>
<path fill="none" stroke="#00B0E1" stroke-width="0.1" d="M24.047,18.745c11.217,5.122,19.573,10.902,18.654,12.913
	c-0.916,2.007-10.759-0.516-21.976-5.637C9.508,20.895,1.148,15.108,2.067,13.099S12.825,13.615,24.047,18.745z"/>
<path fill="none" stroke="#00B0E1" stroke-width="0.1" d="M23.79,18.637c11.548,4.327,20.285,9.512,19.512,11.581
	c-0.775,2.064-10.771,0.236-22.317-4.092C9.434,21.798,0.694,16.607,1.47,14.541C2.245,12.472,12.235,14.303,23.79,18.637z"/>
<path fill="none" stroke="#00B0E1" stroke-width="0.1" d="M23.524,18.548c11.822,3.512,20.9,8.074,20.272,10.192
	c-0.629,2.115-10.727,0.984-22.548-2.523c-11.824-3.516-20.904-8.082-20.274-10.2C1.604,13.902,11.698,15.032,23.524,18.548z"/>
<path fill="none" stroke="#00B0E1" stroke-width="0.1" d="M23.254,18.479c12.04,2.678,21.413,6.593,20.935,8.754
	c-0.48,2.152-10.633,1.729-22.668-0.948c-12.04-2.68-21.419-6.603-20.938-8.758C1.063,15.37,11.21,15.796,23.254,18.479z"/>
<path fill="none" stroke="#00B0E1" stroke-width="0.1" d="M22.981,18.426c12.197,1.833,21.818,5.086,21.492,7.272
	c-0.33,2.182-10.486,2.47-22.682,0.638C9.596,24.503-0.03,21.245,0.298,19.059C0.625,16.875,10.778,16.589,22.981,18.426z"/>
<path fill="none" stroke="#00B0E1" stroke-width="0.1" d="M22.702,18.395c12.296,0.979,22.124,3.553,21.949,5.754
	c-0.178,2.2-10.286,3.197-22.582,2.221C9.776,25.389-0.056,22.811,0.12,20.609C0.295,18.406,10.403,17.414,22.702,18.395z"/>
<path fill="none" stroke="#00B0E1" stroke-width="0.1" d="M22.425,18.383c12.332,0.117,22.314,2.001,22.297,4.209
	c-0.022,2.208-10.042,3.905-22.371,3.787C10.015,26.261,0.03,24.374,0.05,22.166C0.071,19.958,10.087,18.261,22.425,18.383z"/>
<path fill="none" stroke="#00B0E1" stroke-width="0.1" d="M22.144,18.39c12.313-0.745,22.404,0.438,22.539,2.645
	c0.131,2.202-9.744,4.595-22.055,5.339c-12.313,0.743-22.406-0.443-22.539-2.65C-0.042,21.52,9.83,19.129,22.144,18.39z"/>
<path fill="none" stroke="#00B0E1" stroke-width="0.1" d="M21.867,18.415c12.229-1.602,22.376-1.123,22.665,1.066
	c0.286,2.188-9.396,5.266-21.625,6.863c-12.23,1.602-22.385,1.122-22.668-1.068C-0.05,23.085,9.632,20.013,21.867,18.415z"/>
<ellipse transform="matrix(-0.1988 -0.98 0.98 -0.1988 4.9034 48.7705)" fill="none" stroke="#00B0E1" stroke-width="0.1" cx="22.388" cy="22.381" rx="3.999" ry="22.334"/>
<path fill="none" stroke="#00B0E1" stroke-width="0.1" d="M21.323,18.527c11.886-3.288,22-4.229,22.592-2.099
	c0.584,2.128-8.574,6.521-20.463,9.808C11.565,29.52,1.444,30.462,0.856,28.33C0.268,26.201,9.427,21.811,21.323,18.527z"/>
<path fill="none" stroke="#00B0E1" stroke-width="0.1" d="M21.058,18.611c11.625-4.109,21.653-5.755,22.39-3.67
	c0.732,2.08-8.101,7.103-19.728,11.211c-11.63,4.106-21.662,5.75-22.396,3.665C0.591,27.735,9.42,22.715,21.058,18.611z"/>
<path fill="none" stroke="#00B0E1" stroke-width="0.1" d="M20.797,18.713c11.313-4.911,21.198-7.251,22.079-5.226
	c0.877,2.025-7.582,7.652-18.896,12.561c-11.314,4.91-21.205,7.247-22.086,5.22C1.017,29.242,9.476,23.622,20.797,18.713z"/>
<path fill="none" stroke="#00B0E1" stroke-width="0.1" d="M20.545,18.832c10.944-5.687,20.642-8.711,21.66-6.752
	c1.019,1.962-7.026,8.163-17.974,13.848c-10.943,5.687-20.65,8.709-21.669,6.748C1.547,30.716,9.593,24.517,20.545,18.832z"/>
<path fill="none" stroke="#00B0E1" stroke-width="0.1" d="M20.301,18.969c10.521-6.438,19.985-10.131,21.138-8.246
	c1.152,1.883-6.443,8.632-16.961,15.07C13.952,32.228,4.483,35.919,3.33,34.035C2.179,32.15,9.773,25.405,20.301,18.969z"/>
<path fill="none" stroke="#00B0E1" stroke-width="0.1" d="M20.069,19.124c10.046-7.157,19.227-11.5,20.513-9.701
	c1.276,1.799-5.827,9.061-15.874,16.215S5.473,37.136,4.189,35.334C2.911,33.535,10.015,26.276,20.069,19.124z"/>
<path fill="none" stroke="#00B0E1" stroke-width="0.1" d="M19.849,19.292c9.521-7.836,18.378-12.813,19.783-11.107
	c1.399,1.706-5.179,9.444-14.701,17.284C15.403,33.302,6.54,38.277,5.14,36.574C3.735,34.868,10.315,27.129,19.849,19.292z"/>
<path fill="none" stroke="#00B0E1" stroke-width="0.1" d="M19.64,19.477c8.949-8.484,17.439-14.063,18.959-12.46
	c1.518,1.604-4.506,9.783-13.459,18.264c-8.955,8.483-17.451,14.063-18.97,12.46C4.652,36.137,10.677,27.959,19.64,19.477z"/>
<path fill="none" stroke="#00B0E1" stroke-width="0.1" d="M19.441,19.675c8.34-9.087,16.42-15.245,18.047-13.753
	c1.626,1.494-3.815,10.074-12.151,19.16C16.993,34.169,8.91,40.331,7.28,38.835C5.655,37.338,11.096,28.762,19.441,19.675z"/>
<path fill="none" stroke="#00B0E1" stroke-width="0.1" d="M19.262,19.888c7.683-9.648,15.315-16.354,17.042-14.98
	C38.026,6.287,33.2,15.225,25.518,24.87c-7.688,9.646-15.323,16.354-17.05,14.98C6.739,38.471,11.569,29.537,19.262,19.888z"/>
<path fill="none" stroke="#00B0E1" stroke-width="0.1" d="M19.095,20.112C26.087,9.952,33.233,2.73,35.051,3.981
	c1.815,1.253-2.376,10.507-9.37,20.666C18.688,34.804,11.538,42.031,9.718,40.775C7.899,39.523,12.095,30.271,19.095,20.112z"/>
<path fill="none" stroke="#00B0E1" stroke-width="0.1" d="M18.944,20.346C25.209,9.723,31.834,2.019,33.737,3.143
	c1.9,1.122-1.637,10.646-7.905,21.268c-6.27,10.623-12.897,18.328-14.8,17.202C9.132,40.493,12.669,30.972,18.944,20.346z"/>
<path fill="none" stroke="#00B0E1" stroke-width="0.1" d="M18.81,20.591C24.322,9.558,30.391,1.41,32.366,2.396
	c1.975,0.989-0.89,10.737-6.399,21.768C20.452,35.197,14.378,43.349,12.403,42.36C10.428,41.372,13.292,31.627,18.81,20.591z"/>
<path fill="none" stroke="#00B0E1" stroke-width="0.1" d="M18.695,20.844C23.421,9.453,28.908,0.903,30.949,1.75
	c2.038,0.847-0.139,10.771-4.866,22.161c-4.73,11.392-10.223,19.945-12.262,19.098C11.781,42.159,13.96,32.239,18.695,20.844z"/>
<path fill="none" stroke="#00B0E1" stroke-width="0.1" d="M18.597,21.106C22.519,9.415,27.396,0.5,29.489,1.203
	c2.092,0.703,0.614,10.755-3.311,22.446c-3.922,11.691-8.803,20.609-10.896,19.905C13.186,42.852,14.668,32.801,18.597,21.106z"/>
<path fill="none" stroke="#00B0E1" stroke-width="0.1" d="M18.517,21.372c3.096-11.937,7.34-21.167,9.476-20.613
	c2.14,0.555,1.365,10.685-1.733,22.623c-3.1,11.939-7.346,21.173-9.483,20.618C14.638,43.444,15.414,33.317,18.517,21.372z"/>
<path fill="none" stroke="#00B0E1" stroke-width="0.1" d="M18.458,21.646C20.711,9.52,24.301,0.014,26.472,0.418
	c2.17,0.405,2.105,10.566-0.152,22.689c-2.259,12.126-5.852,21.635-8.021,21.229C16.125,43.934,16.194,33.775,18.458,21.646z"/>
<path fill="none" stroke="#00B0E1" stroke-width="0.1" d="M18.416,21.922c1.403-12.255,4.322-21.987,6.515-21.734
	c2.193,0.255,2.836,10.392,1.43,22.645c-1.405,12.253-4.327,21.99-6.522,21.737C17.645,44.317,17.006,34.179,18.416,21.922z"/>
<path fill="none" stroke="#00B0E1" stroke-width="0.1" d="M18.392,22.2c0.548-12.322,2.777-22.232,4.986-22.135
	c2.203,0.099,3.553,10.169,3.006,22.489c-0.549,12.32-2.783,22.236-4.992,22.138C19.185,44.593,17.841,34.528,18.392,22.2z"/>
<path fill="none" stroke="#00B0E1" stroke-width="0.1" d="M18.39,22.48c-0.314-12.332,1.222-22.375,3.429-22.43
	c2.206-0.056,4.251,9.895,4.567,22.223c0.311,12.333-1.226,22.38-3.436,22.435C20.743,44.763,18.698,34.813,18.39,22.48z"/>
<path fill="none" stroke="#00B0E1" stroke-width="0.1" d="M18.406,22.757c-1.175-12.276-0.343-22.403,1.855-22.613
	c2.198-0.209,4.934,9.576,6.107,21.852c1.171,12.278,0.339,22.408-1.862,22.618C22.31,44.824,19.573,35.041,18.406,22.757z"/>
<path fill="none" stroke="#00B0E1" stroke-width="0.1" d="M18.444,23.034c-2.03-12.164-1.906-22.323,0.27-22.688
	c2.181-0.359,5.592,9.208,7.616,21.372c2.027,12.169,1.903,22.333-0.275,22.693C23.876,44.773,20.466,35.206,18.444,23.034z"/>
<path fill="none" stroke="#00B0E1" stroke-width="0.1" d="M18.499,23.307C15.626,11.312,15.04,1.169,17.188,0.655
	c2.147-0.511,6.219,8.797,9.086,20.791c2.871,11.995,3.455,22.144,1.307,22.654C25.435,44.614,21.364,35.309,18.499,23.307z"/>
<path fill="none" stroke="#00B0E1" stroke-width="0.1" d="M18.571,23.575C14.872,11.81,13.579,1.732,15.685,1.072
	C17.791,0.41,22.501,9.411,26.2,21.175c3.699,11.767,4.992,21.851,2.885,22.51C26.978,44.347,22.271,35.347,18.571,23.575z"/>
<path fill="none" stroke="#00B0E1" stroke-width="0.1" d="M18.664,23.839C14.154,12.36,12.16,2.398,14.214,1.59
	c2.057-0.807,7.385,7.845,11.894,19.322c4.513,11.479,6.504,21.447,4.445,22.253C28.498,43.974,23.173,35.326,18.664,23.839z"/>
<path fill="none" stroke="#00B0E1" stroke-width="0.1" d="M18.774,24.096C13.473,12.961,10.79,3.159,12.784,2.21
	c1.994-0.949,7.913,7.31,13.213,18.445c5.299,11.139,7.984,20.943,5.988,21.892C29.99,43.495,24.077,35.237,18.774,24.096z"/>
<path fill="none" stroke="#00B0E1" stroke-width="0.1" d="M18.904,24.342C12.839,13.606,9.48,4.018,11.403,2.93
	c1.922-1.085,8.4,6.739,14.464,17.479c6.065,10.743,9.425,20.332,7.501,21.42C31.444,42.913,24.968,35.088,18.904,24.342z"/>
<path fill="none" stroke="#00B0E1" stroke-width="0.1" d="M19.05,24.582C12.249,14.292,8.229,4.96,10.07,3.742
	c1.845-1.217,8.853,6.14,15.651,16.43c6.799,10.291,10.822,19.628,8.977,20.841C32.855,42.232,25.849,34.878,19.05,24.582z"/>
</svg>
