<?xml version="1.0" encoding="utf-8"?>
<!-- Generator: Adobe Illustrator 12.0.0, SVG Export Plug-In  -->
<!DOCTYPE svg PUBLIC "-//W3C//DTD SVG 1.1//EN" "http://www.w3.org/Graphics/SVG/1.1/DTD/svg11.dtd" [
	<!ENTITY ns_flows "http://ns.adobe.com/Flows/1.0/">
	<!ENTITY ns_svg "http://www.w3.org/2000/svg">
	<!ENTITY ns_xlink "http://www.w3.org/1999/xlink">
]>
<svg  version="1.1" xmlns="&ns_svg;" xmlns:xlink="&ns_xlink;" xmlns:a="http://ns.adobe.com/AdobeSVGViewerExtensions/3.0/"
	 width="16" height="8" viewBox="-0.542 -0.276 16 8" enable-background="new -0.542 -0.276 16 8" xml:space="preserve">
<defs>
</defs>
<path d="M0,3.748C0,1.18,1.901,0.001,3.097,0.001c0.864,0,2.118,0.508,2.118,1.717c0,0.717-0.577,1.135-1.023,1.135
	C3.558,2.868,3.068,2.45,3.068,1.927c0-0.269,0.101-0.403,0.49-0.687c0.173-0.164,0.26-0.359,0.26-0.448
	c0-0.238-0.375-0.358-0.937-0.343c-1.022,0.03-1.944,1.105-1.944,2.016c0,1.747,1.685,2.016,2.348,2.194
	c0.633,0.179,0.691,0.627,0.691,0.821c0,0.24-0.015,0.449-0.115,0.673C3.774,6.361,3.731,6.51,3.731,6.674
	c0,0.135,0.158,0.209,0.403,0.209C5.143,6.883,6.179,5.629,7,4.42C6.856,4.241,6.77,4.002,6.755,3.748
	c-0.015-0.552,0.447-1.06,0.979-1.075c0.144,0,0.288,0.03,0.404,0.074c1.253-1.836,2.175-2.702,3.774-2.747
	c1.857-0.044,3.37,1.493,3.37,3.777c0,2.463-1.556,3.703-2.981,3.733c-0.937,0.014-2.003-0.464-2.003-1.464
	c0-0.612,0.447-1.18,1.023-1.18c0.792,0,1.008,0.583,1.008,0.94c0,0.269-0.115,0.418-0.201,0.493
	c-0.145,0.119-0.188,0.194-0.188,0.358s0.216,0.388,0.605,0.373c0.647-0.015,1.887-0.643,1.887-2.09
	c0-1.284-0.476-1.642-1.829-2.045c-0.778-0.224-1.109-0.493-1.109-0.911c0-0.313,0.115-0.597,0.144-0.701
	c0.043-0.165,0.086-0.344,0.086-0.448c0-0.135-0.114-0.239-0.389-0.239c-1.022,0.03-1.873,1.12-2.78,2.463
	C8.7,3.226,8.787,3.45,8.801,3.703c0.015,0.598-0.432,1.075-1.008,1.105c-0.13,0-0.245-0.015-0.361-0.061
	C6.309,6.346,5.186,7.452,3.486,7.511C1.354,7.57,0,5.645,0,3.748z"/>
</svg>
