<?xml version="1.0" encoding="utf-8"?>
<!-- Generator: Adobe Illustrator 12.0.0, SVG Export Plug-In  -->
<!DOCTYPE svg PUBLIC "-//W3C//DTD SVG 1.1//EN" "http://www.w3.org/Graphics/SVG/1.1/DTD/svg11.dtd" [
	<!ENTITY ns_flows "http://ns.adobe.com/Flows/1.0/">
	<!ENTITY ns_svg "http://www.w3.org/2000/svg">
	<!ENTITY ns_xlink "http://www.w3.org/1999/xlink">
]>
<svg  version="1.1" xmlns="&ns_svg;" xmlns:xlink="&ns_xlink;" xmlns:a="http://ns.adobe.com/AdobeSVGViewerExtensions/3.0/"
	 width="20" height="10" viewBox="-0.695 -0.27 20 10" enable-background="new -0.695 -0.27 20 10" xml:space="preserve">
<defs>
</defs>
<path fill="#00A0C6" d="M0,4.519c0-3.096,2.292-4.518,3.734-4.518c1.042,0,2.553,0.612,2.553,2.07c0,0.864-0.694,1.368-1.233,1.368
	C4.29,3.457,3.699,2.953,3.699,2.323c0-0.324,0.122-0.486,0.59-0.828c0.208-0.198,0.313-0.432,0.313-0.54
	c0-0.288-0.451-0.432-1.129-0.414C2.24,0.577,1.129,1.873,1.129,2.971c0,2.106,2.032,2.43,2.831,2.646
	c0.764,0.216,0.834,0.756,0.834,0.989c0,0.289-0.018,0.541-0.139,0.811C4.55,7.669,4.498,7.849,4.498,8.047
	c0,0.162,0.191,0.252,0.486,0.252c1.216,0,2.466-1.512,3.456-2.97c-0.174-0.216-0.278-0.504-0.295-0.81
	C8.128,3.853,8.684,3.241,9.326,3.223c0.174,0,0.347,0.036,0.486,0.09c1.511-2.214,2.623-3.258,4.55-3.312
	c2.24-0.054,4.063,1.8,4.063,4.554c0,2.969-1.875,4.463-3.595,4.5c-1.129,0.018-2.414-0.559-2.414-1.765
	c0-0.737,0.539-1.422,1.233-1.422c0.956,0,1.215,0.702,1.215,1.134c0,0.324-0.139,0.504-0.242,0.594
	c-0.174,0.145-0.227,0.234-0.227,0.432c0,0.199,0.261,0.469,0.73,0.451c0.781-0.019,2.274-0.774,2.274-2.521
	c0-1.548-0.573-1.98-2.206-2.466c-0.938-0.27-1.337-0.594-1.337-1.098c0-0.378,0.139-0.72,0.174-0.846
	c0.052-0.198,0.104-0.414,0.104-0.54c0-0.162-0.139-0.288-0.469-0.288c-1.233,0.036-2.258,1.35-3.352,2.97
	c0.174,0.198,0.278,0.468,0.295,0.774c0.018,0.72-0.521,1.296-1.216,1.332c-0.156,0-0.295-0.018-0.434-0.072
	C7.607,7.651,6.252,8.983,4.203,9.056C1.632,9.127,0,6.806,0,4.519z"/>
</svg>
